<svg xmlns="http://www.w3.org/2000/svg" width="60" height="60" viewBox="0 0 30 30"><path d="M 4 4 L 4 24 C 4 25.105 4.895 26 6 26 L 14.523438 26 C 14.190437 25.06 14 24.054 14 23 C 14 18.029 18.029 14 23 14 C 24.054 14 25.06 14.190437 26 14.523438 L 26 4 L 4 4 z M 12 6 L 18 6 C 18.552 6 19 6.448 19 7 C 19 7.552 18.552 8 18 8 L 12 8 C 11.448 8 11 7.552 11 7 C 11 6.448 11.448 6 12 6 z M 23 16 C 19.134 16 16 19.134 16 23 C 16 26.866 19.134 30 23 30 C 26.866 30 30 26.866 30 23 C 30 19.134 26.866 16 23 16 z M 22 18 L 24 18 L 24 19.419922 C 25.088 19.708922 25.791453 20.468375 25.814453 21.484375 L 24.160156 21.484375 C 24.121156 20.986375 23.647578 20.638672 23.017578 20.638672 C 22.387578 20.638672 21.972656 20.93725 21.972656 21.40625 C 21.972656 21.79225 22.284344 22.015109 23.027344 22.162109 L 23.935547 22.339844 C 25.327547 22.608844 25.951172 23.236469 25.951172 24.355469 C 25.951172 25.527469 25.227 26.321656 24 26.597656 L 24 28 L 22 28 L 22 26.605469 C 20.802 26.346469 20.072828 25.601578 20.048828 24.517578 L 21.757812 24.517578 C 21.801813 25.030578 22.314641 25.357422 23.056641 25.357422 C 23.725641 25.357422 24.183594 25.034312 24.183594 24.570312 C 24.183594 24.179312 23.875312 23.969594 23.070312 23.808594 L 22.142578 23.623047 C 20.853578 23.379047 20.189453 22.675406 20.189453 21.566406 C 20.189453 20.482406 20.88 19.700109 22 19.412109 L 22 18 z"/></svg>