<svg xmlns="http://www.w3.org/2000/svg" width="313" height="63" fill="none" viewBox="0 0 313 63"><mask id="mask0_1_32" style="mask-type:luminance" width="43" height="47" x="0" y="7" maskUnits="userSpaceOnUse"><path fill="#fff" d="M43 7H0V54H43V7Z"/></mask><g mask="url(#mask0_1_32)"><path fill="url(#paint0_linear_1_32)" d="M43 30.5001C42.9999 36.7326 40.7346 42.7098 36.7026 47.1169C32.6706 51.524 27.2021 53.9999 21.5 54.0001C21.2059 54.0001 20.9174 53.994 20.6234 53.9819C19.0528 53.9118 17.4938 53.6555 15.9738 53.2177C16.2679 53.054 16.5564 52.8903 16.8449 52.7144C16.8505 52.7144 16.856 52.7083 16.8671 52.7023L16.8726 52.6962C17.1778 52.5143 17.4774 52.3323 17.7715 52.1443C17.8436 52.0958 17.9157 52.0534 17.9879 52.0109C18.2653 51.829 18.5427 51.647 18.8146 51.453C18.895 51.4054 18.9728 51.3527 19.0476 51.2953C19.2585 51.1558 19.4693 51.0042 19.6746 50.8526C19.8188 50.7495 19.9686 50.6403 20.1074 50.5372C20.3182 50.3795 20.5235 50.2219 20.7288 50.0581C20.8675 49.955 20.9951 49.8519 21.1283 49.7367C21.3058 49.6033 21.4778 49.4577 21.6498 49.3122C21.8052 49.1909 21.955 49.0635 22.1048 48.9301C22.3156 48.7543 22.5209 48.5723 22.7262 48.3783C22.815 48.3055 22.9037 48.2266 22.9925 48.1417C23.2145 47.9416 23.4308 47.7354 23.6472 47.5232C23.7637 47.414 23.8803 47.3048 23.9968 47.1835C24.1244 47.0623 24.2465 46.941 24.3685 46.8136C24.6015 46.5832 24.829 46.3406 25.0565 46.098C25.087 46.0708 25.1149 46.0403 25.1397 46.007C25.3617 45.7766 25.5781 45.534 25.7889 45.2914C25.9387 45.1337 26.0774 44.97 26.2106 44.8063C26.3715 44.6304 26.5213 44.4484 26.6711 44.2665C26.7599 44.1634 26.8431 44.0603 26.9208 43.9572C27.1205 43.7146 27.3147 43.466 27.5089 43.2174C27.6088 43.09 27.7086 42.9566 27.803 42.8232C27.9472 42.6412 28.0859 42.4593 28.2135 42.2713C28.3467 42.0954 28.4743 41.9135 28.5964 41.7315C28.7129 41.5739 28.8239 41.4101 28.9293 41.2524C29.0735 41.0463 29.2123 40.8401 29.3454 40.6278C29.4786 40.4155 29.6228 40.2033 29.756 39.985C29.8221 39.8898 29.8832 39.7905 29.9391 39.6878C30.1277 39.3846 30.3108 39.0753 30.4884 38.766C30.7159 38.3839 30.9323 37.9958 31.1375 37.6016C31.2319 37.4318 31.3206 37.262 31.4094 37.0922C32.1289 35.7052 32.7701 34.2712 33.3292 32.7985C33.4124 32.5923 33.4901 32.3861 33.5622 32.1739C33.651 31.9495 33.7286 31.719 33.8063 31.4886C33.8729 31.3006 33.9395 31.1065 34.0005 30.9124C34.0726 30.7002 34.1392 30.4819 34.2058 30.2696C34.4499 29.4934 34.6719 28.711 34.8661 27.9166C34.916 27.7164 34.9659 27.5224 35.0103 27.3223C35.0436 27.1949 35.0714 27.0736 35.0991 26.9463L35.2323 26.3277C35.4098 25.4847 35.5596 24.6357 35.6872 23.7745L35.7705 23.1923C35.7815 23.1014 35.7926 23.0164 35.8037 22.9255C35.837 22.695 35.8648 22.4646 35.887 22.2341C35.9258 21.8884 35.9646 21.5428 35.9924 21.1971C36.0035 21.1061 36.009 21.0152 36.0146 20.9242C36.0368 20.6877 36.0534 20.4451 36.0701 20.2086C36.0867 19.9721 36.0978 19.7234 36.1089 19.4808C36.12 19.311 36.1255 19.1412 36.1311 18.9654C36.1533 18.4074 36.1644 17.8495 36.1644 17.2915C36.1644 17.0065 36.1644 16.7275 36.1533 16.4486C36.1533 16.303 36.1533 16.1635 36.1477 16.018C36.1311 15.5146 36.1089 15.0174 36.0756 14.5201V14.5019C36.0701 14.3806 36.0645 14.2593 36.0534 14.138C36.0312 13.8044 36.0035 13.477 35.9757 13.1434C35.9759 13.133 35.974 13.1226 35.9702 13.1131C36.7177 13.8573 37.4167 14.6577 38.0619 15.5086L38.0786 15.5268C38.0816 15.53 38.0836 15.5343 38.0841 15.5389C41.2692 19.7465 43.0082 25.0389 43 30.5001Z"/><path fill="url(#paint1_linear_1_32)" d="M36.1642 17.2915C36.1672 24.5456 34.3759 31.6657 30.9799 37.8982C27.5839 44.1307 22.7094 49.2437 16.8725 52.6961C16.8653 52.7053 16.8556 52.7118 16.8447 52.7143L16.8392 52.7204C16.5507 52.8902 16.2622 53.0539 15.9737 53.2177C14.163 52.6961 12.4239 51.9129 10.8026 50.8889C9.62967 50.1505 8.52254 49.2936 7.49576 48.3297C7.68995 48.1053 7.8786 47.8809 8.06724 47.6504L8.07273 47.6444C8.07273 47.6383 8.07834 47.6323 8.08389 47.6262H8.08938C14.1608 40.2506 17.5137 30.6759 17.4995 20.7543C17.5004 16.4804 16.8824 12.2332 15.6685 8.17047H15.663C15.663 8.15834 15.6574 8.14621 15.6574 8.13408H15.6518C15.6487 8.12432 15.6468 8.1141 15.6463 8.10375C15.5354 7.73381 15.4189 7.36389 15.2968 7.00002H21.4999C26.8523 6.99192 32.0139 9.17247 35.97 13.113C36.0144 13.5739 36.0477 14.0348 36.0754 14.5018C36.1365 15.4236 36.1642 16.3515 36.1642 17.2915Z"/><path fill="url(#paint2_linear_1_32)" d="M17.4996 20.7543C17.4996 21.1606 17.4941 21.567 17.483 21.9672C17.4774 22.228 17.4663 22.4827 17.4552 22.7435C17.4108 23.7866 17.3276 24.8236 17.2055 25.8546C17.1778 26.1214 17.1445 26.3822 17.1057 26.643C17.0668 26.9644 17.0169 27.2797 16.967 27.6012C16.9226 27.9044 16.8726 28.2015 16.8172 28.5048C16.8061 28.5775 16.7894 28.6503 16.7783 28.7231C16.7339 28.9717 16.684 29.2265 16.6341 29.4751C16.3735 30.7676 16.0531 32.0448 15.6742 33.3018C15.6021 33.5505 15.5244 33.793 15.4467 34.0295C15.4399 34.0587 15.4307 34.0872 15.419 34.1145C15.3413 34.3631 15.2636 34.5996 15.1804 34.8422C15.1582 34.915 15.1305 34.9938 15.1027 35.0726C15.0139 35.3334 14.9196 35.5881 14.8253 35.8428C14.7199 36.1339 14.6089 36.425 14.4924 36.7101C14.3759 37.0072 14.2538 37.3044 14.1317 37.6015C14.0152 37.8745 13.8932 38.1474 13.7766 38.4142C13.649 38.6992 13.5214 38.9782 13.3883 39.2511C13.2551 39.524 13.1219 39.803 12.9832 40.0759C12.8445 40.3488 12.7058 40.6217 12.5671 40.8885C12.4284 41.1554 12.2786 41.4283 12.1288 41.6951C11.979 41.9619 11.8292 42.2227 11.6738 42.4835C11.3686 43.005 11.0524 43.5205 10.725 44.0239C10.3977 44.5272 10.0537 45.0245 9.70968 45.5157C9.18813 46.2374 8.6481 46.9409 8.08955 47.6262H8.084C8.07845 47.6323 8.07845 47.6323 8.07845 47.6383C8.07845 47.6399 8.0779 47.6415 8.07684 47.6426C8.07579 47.6437 8.0744 47.6444 8.0729 47.6444C7.88426 47.8748 7.69006 48.1053 7.49587 48.3297C6.62167 47.5085 5.80899 46.6121 5.06569 45.6492C5.06006 45.6376 5.05253 45.6274 5.0435 45.6188C1.78055 41.389 -0.00625769 36.0327 1.64671e-05 30.5V7H15.2969C15.419 7.36387 15.5355 7.72774 15.6409 8.09768L15.6465 8.10373C15.647 8.11408 15.6488 8.12431 15.652 8.13406H15.6575V8.15225C15.6572 8.15555 15.6575 8.15888 15.6584 8.16203C15.6594 8.16517 15.661 8.16805 15.6631 8.17045H15.6686C15.6736 8.19358 15.681 8.21597 15.6908 8.23715L15.7574 8.47367C15.9461 9.11651 16.1181 9.76541 16.2734 10.4264C16.3844 10.8692 16.4843 11.324 16.5786 11.7788C16.7506 12.6036 16.9004 13.4466 17.028 14.3017C17.0557 14.5079 17.089 14.708 17.1112 14.9142C17.1778 15.4175 17.2388 15.9209 17.2888 16.4303C17.311 16.6183 17.3276 16.8124 17.3387 17.0004C17.372 17.3521 17.3942 17.7099 17.4164 18.0617C17.4719 18.9532 17.4996 19.8507 17.4996 20.7543Z"/><g style="mix-blend-mode:multiply" opacity=".15"><path fill="#000" d="M10.8026 50.8889C9.62967 50.1504 8.52254 49.2936 7.49576 48.3297C12.1623 42.9008 15.3617 36.165 16.7387 28.8696C18.1157 21.5741 17.6166 14.0043 15.2968 7C15.2968 7 24.9621 23.4894 10.8026 50.8889Z"/></g><g style="mix-blend-mode:multiply" opacity=".15"><path fill="#000" d="M20.6234 53.9819C19.0528 53.9118 17.4938 53.6555 15.9738 53.2177C22.0481 49.8539 27.1506 44.7157 30.7148 38.3738C34.2789 32.0319 36.1653 24.7344 36.1644 17.2915C36.1642 15.896 36.0994 14.5014 35.9702 13.1131C35.9702 13.1131 41.7327 35.9521 20.6234 53.9819Z"/></g><g style="mix-blend-mode:multiply" opacity=".25"><path fill="#000" d="M36.3422 20.1333C36.3089 20.6305 36.2756 21.1522 36.2423 21.698C36.1979 22.2377 36.1979 22.8198 36.1036 23.396C36.0259 23.9782 35.9427 24.5847 35.8594 25.2033C35.7929 25.8279 35.632 26.4464 35.5099 27.0893C35.3935 27.7508 35.2434 28.4048 35.0605 29.0482C34.8774 29.7031 34.6943 30.3642 34.5056 31.0434C34.2837 31.7044 34.0451 32.3654 33.8009 33.0385C33.579 33.7178 33.2683 34.3607 32.9909 35.0217L32.5637 36.0102C32.4139 36.3377 32.2419 36.6531 32.081 36.9745C31.7425 37.5991 31.4429 38.2601 31.0656 38.8605C30.6994 39.4669 30.3333 40.0734 29.9671 40.6738C29.214 41.8151 28.4065 42.9122 27.548 43.9608C26.7482 44.9425 25.9038 45.8796 25.0179 46.7687C24.5796 47.175 24.1523 47.5692 23.7418 47.9513C23.5365 48.1393 23.3312 48.3211 23.1314 48.5031C22.9262 48.6729 22.7153 48.8367 22.5156 48.9944C22.1105 49.3158 21.7277 49.619 21.356 49.9101C20.9842 50.2012 20.6069 50.4255 20.2685 50.6682C19.5749 51.123 18.9868 51.5414 18.4597 51.8204C17.4998 52.3662 16.9173 52.6755 16.8451 52.7118C16.8559 52.7093 16.8657 52.7029 16.8729 52.6936C22.7098 49.2412 27.5842 44.1282 30.9802 37.8957C34.3762 31.6632 36.1675 24.5431 36.1646 17.289C36.1646 16.349 36.1369 15.4212 36.0758 14.4994C36.0925 14.651 36.1591 15.3423 36.2478 16.4461C36.2645 16.7675 36.3089 17.0949 36.3089 17.5013C36.3144 17.8773 36.32 18.2896 36.3255 18.7324C36.3311 19.1751 36.3366 19.6384 36.3422 20.1333Z"/></g><g style="mix-blend-mode:multiply" opacity=".25"><path fill="#000" d="M8.08314 47.6262H8.08832C8.08314 47.6383 8.07797 47.6383 8.07279 47.6444C8.07279 47.6383 8.07797 47.6323 8.08314 47.6262Z"/></g><g style="mix-blend-mode:multiply" opacity=".25"><path fill="#000" d="M15.6553 8.13412C15.6581 8.14655 15.6617 8.15871 15.6662 8.1705H15.6607C15.6553 8.15837 15.6553 8.14625 15.6498 8.13412C15.6467 8.12436 15.6449 8.11413 15.6444 8.10378C15.6486 8.11363 15.6522 8.12376 15.6553 8.13412Z"/></g><g style="mix-blend-mode:multiply" opacity=".25"><path fill="#000" d="M17.9768 21.2856C17.9865 22.5797 17.9309 23.8734 17.8104 25.1608C17.6898 26.4883 17.5064 27.8081 17.2611 29.1149C17.1335 29.7759 17.0003 30.4309 16.8339 31.0737L16.5953 32.038C16.501 32.3533 16.4122 32.6687 16.3179 32.984C16.2235 33.2994 16.1348 33.6147 16.0404 33.924C15.935 34.2273 15.8296 34.5365 15.7242 34.8337C15.5189 35.4462 15.2859 36.0284 15.0528 36.6045C14.8309 37.1867 14.5812 37.7386 14.3315 38.2783C14.0819 38.8181 13.8211 39.3396 13.5603 39.8369C13.3106 40.3403 13.0499 40.8194 12.778 41.2742C12.5117 41.7291 12.2564 42.1718 11.9901 42.5781C11.7238 42.9844 11.4797 43.3847 11.2244 43.7425C10.9692 44.1003 10.7195 44.4399 10.4865 44.7553C10.0149 45.386 9.57658 45.9075 9.23258 46.3502C8.58896 47.084 8.17838 47.5267 8.08961 47.6238C14.161 40.2482 17.5139 30.6734 17.4997 20.7519C17.5006 16.478 16.8826 12.2308 15.6687 8.16804C15.6964 8.24082 15.7408 8.36817 15.8074 8.55011C15.9128 8.83514 16.0682 9.25965 16.2346 9.81152C16.7111 11.3357 17.0911 12.8939 17.3721 14.4751C17.5651 15.5339 17.7096 16.6026 17.8048 17.6772C17.9256 18.8754 17.983 20.0802 17.9768 21.2856Z"/></g><g style="mix-blend-mode:screen" opacity=".4"><path fill="#fff" d="M36.1644 17.2915C36.1674 24.5457 34.3761 31.6658 30.9801 37.8982C27.5841 44.1307 22.7097 49.2437 16.8728 52.6962C17.0004 52.5992 17.5219 52.211 18.3486 51.6167C18.8424 51.2953 19.3917 50.8162 20.0298 50.2946C20.6845 49.7913 21.3669 49.1424 22.1159 48.4571C22.3046 48.2812 22.4988 48.1054 22.693 47.9295C22.8761 47.7354 23.0648 47.5414 23.2534 47.3412C23.6418 46.947 24.0357 46.5346 24.4463 46.1162C25.2008 45.2126 26.0442 44.309 26.8044 43.2598C27.6199 42.2652 28.3246 41.1251 29.0902 40.0032C29.4398 39.4149 29.7894 38.8266 30.1389 38.2323C30.4996 37.6441 30.7826 37.0012 31.1099 36.3887C31.2708 36.0794 31.4428 35.7762 31.587 35.4608L32.0088 34.5026C32.2862 33.8659 32.5968 33.2473 32.8188 32.5863C33.0573 31.9434 33.296 31.3006 33.5346 30.6638C33.7343 30.0149 33.934 29.3721 34.1282 28.7414C34.3446 28.1167 34.4611 27.4678 34.6276 26.8553C34.7774 26.2306 34.9604 25.6363 35.0492 25.0299C35.2656 23.8291 35.5042 22.695 35.6096 21.6337C35.6817 21.1061 35.7484 20.5967 35.8094 20.1115C35.8482 19.6203 35.8815 19.1534 35.9148 18.7167C35.9481 18.2801 35.9758 17.8677 36.0035 17.4917C36.0368 17.1339 36.0202 16.77 36.0313 16.4546C36.048 15.3448 36.0701 14.6535 36.0757 14.5019C36.1367 15.4237 36.1644 16.3515 36.1644 17.2915Z"/></g><g style="mix-blend-mode:screen" opacity=".4"><path fill="#fff" d="M17.4995 20.7544C17.5138 30.6759 14.1608 40.2507 8.08944 47.6263C8.08389 47.6384 8.07834 47.6384 8.07279 47.6445C8.07279 47.6384 8.07834 47.6323 8.08389 47.6263C8.16157 47.511 8.50557 47.0016 9.0715 46.195C9.37111 45.722 9.75395 45.1641 10.1534 44.4909C10.5529 43.8177 11.0023 43.0536 11.4518 42.2046C11.6903 41.7861 11.9123 41.3374 12.1398 40.8704C12.3672 40.4034 12.6114 39.9243 12.8333 39.4149C13.0663 38.9115 13.2994 38.3961 13.5102 37.8503C13.7211 37.3044 13.9596 36.7647 14.1538 36.1946C14.3647 35.6246 14.5755 35.0485 14.7531 34.4481C14.9472 33.8598 15.1303 33.2534 15.2968 32.6408C15.3856 32.3315 15.4688 32.0223 15.5576 31.713L15.7795 30.773C15.9349 30.1483 16.0569 29.5115 16.1734 28.8748C16.4233 27.6066 16.614 26.3253 16.7449 25.0359C16.8725 23.7624 16.9724 22.501 17.0001 21.2759C17.1093 17.4479 16.7813 13.62 16.0236 9.8807C15.8405 8.96496 15.7074 8.36456 15.663 8.1705C15.6574 8.15837 15.6574 8.14625 15.6519 8.13412C15.6487 8.12436 15.6468 8.11413 15.6463 8.10378C15.6506 8.11363 15.6543 8.12376 15.6574 8.13412C15.6603 8.14655 15.664 8.15871 15.6685 8.1705C16.8825 12.2333 17.5004 16.4804 17.4995 20.7544Z"/></g><g style="mix-blend-mode:multiply" opacity=".25"><path fill="#000" d="M43 30.5001C42.9998 36.7326 40.7346 42.7098 36.7026 47.1169C32.6706 51.524 27.2021 53.9999 21.5 54.0001C21.5 54.0001 21.6886 53.9819 22.0437 53.9455C22.4044 53.9212 22.9204 53.8363 23.5751 53.7393C24.2298 53.6241 25.0177 53.4543 25.9054 53.2117C26.8909 52.9179 27.8597 52.5614 28.8072 52.1443C29.9178 51.6392 30.9901 51.0389 32.0142 50.3492C33.1447 49.5758 34.2121 48.6972 35.2045 47.7233C36.2592 46.6801 37.2197 45.5286 38.073 44.2847C38.9586 43.0088 39.7157 41.6323 40.3312 40.179C40.9601 38.7305 41.4492 37.2143 41.7905 35.6549C42.1202 34.1445 42.3172 32.6032 42.3786 31.0519C42.4323 29.5932 42.3693 28.1322 42.1899 26.6855C42.0243 25.3849 41.7627 24.1011 41.4076 22.8466C41.1036 21.7787 40.7366 20.7334 40.309 19.7174C39.9151 18.8137 39.5378 18.0375 39.1994 17.4189C38.8609 16.8003 38.5779 16.3152 38.3726 15.9998C38.2173 15.7572 38.123 15.6056 38.0841 15.5389C41.2692 19.7465 43.0082 25.0389 43 30.5001Z"/></g><g style="mix-blend-mode:screen" opacity=".4"><path fill="#fff" d="M3.46776 7.52761L0.582592 7.60645L0.649167 11.9972C0.676909 13.6588 0.671377 15.3266 0.682474 16.9943C0.693571 18.6621 0.693571 20.3237 0.682474 21.9854C0.671377 23.6471 0.676909 25.3148 0.649167 26.9826L0.610345 29.4812L0.599237 30.7123C0.604785 31.1307 0.593689 31.5552 0.615882 31.9494C0.639513 32.7573 0.704346 33.5631 0.810076 34.3631C0.915495 35.1697 1.06531 35.9702 1.23731 36.7646C1.41301 37.5571 1.62785 38.3385 1.88091 39.1055C2.13059 39.8818 2.42466 40.6399 2.74092 41.3858C3.07382 42.1196 3.41227 42.8595 3.81175 43.569C4.18904 44.2665 4.61073 44.9517 5.0435 45.6188C1.78055 41.389 -0.00625769 36.0327 1.64671e-05 30.5V7H13.871C11.5573 7.18194 9.24916 7.29109 6.93548 7.39419L3.46776 7.52761Z"/></g></g><path fill="url(#paint3_linear_1_32)" d="M52.088 49L66.248 13.96H75.368L78.488 49H71.336L70.904 41.08H62.552L59.624 49H52.088ZM64.664 35.32H70.568L70.232 26.872C70.2 25.656 70.136 24.456 70.04 23.272C69.976 22.056 69.928 21.112 69.896 20.44C69.672 21.112 69.368 22.04 68.984 23.224C68.632 24.408 68.232 25.608 67.784 26.824L64.664 35.32ZM91.2373 49.48C88.5813 49.48 86.5973 48.552 85.2853 46.696C84.0053 44.84 83.6053 42.328 84.0853 39.16L85.1893 32.44C85.5093 30.328 86.1493 28.504 87.1093 26.968C88.1013 25.432 89.3173 24.248 90.7573 23.416C92.2293 22.552 93.8453 22.12 95.6053 22.12C97.7813 22.12 99.3813 22.76 100.405 24.04C101.461 25.288 101.813 27.048 101.461 29.32L100.021 27.64H101.701L102.517 21.16L103.669 13.96H110.869L105.301 49H98.3413L99.1573 43.96H97.4773L99.3973 42.28C99.0453 44.552 98.1333 46.328 96.6613 47.608C95.2213 48.856 93.4133 49.48 91.2373 49.48ZM94.8373 43.24C96.1493 43.24 97.2213 42.872 98.0533 42.136C98.9173 41.368 99.4613 40.296 99.6853 38.92L100.693 32.68C100.917 31.304 100.709 30.248 100.069 29.512C99.4613 28.744 98.5013 28.36 97.1893 28.36C95.8453 28.36 94.7573 28.744 93.9253 29.512C93.0933 30.248 92.5653 31.304 92.3413 32.68L91.3333 38.92C91.1093 40.296 91.3013 41.368 91.9093 42.136C92.5173 42.872 93.4933 43.24 94.8373 43.24ZM110.466 49L114.643 22.6H120.307L119.683 26.44H120.835L119.827 27.112C120.083 25.608 120.707 24.408 121.699 23.512C122.723 22.584 123.875 22.12 125.155 22.12C126.531 22.12 127.507 22.712 128.083 23.896C128.659 25.08 128.787 26.648 128.467 28.6L127.939 26.44H129.283L128.755 27.112C129.011 25.608 129.619 24.408 130.579 23.512C131.571 22.584 132.771 22.12 134.179 22.12C135.779 22.12 136.979 22.728 137.779 23.944C138.579 25.128 138.819 26.76 138.499 28.84L135.283 49H129.091L132.211 29.32C132.339 28.584 132.275 28.024 132.019 27.64C131.763 27.224 131.331 27.016 130.723 27.016C130.115 27.016 129.619 27.224 129.235 27.64C128.851 28.024 128.595 28.584 128.467 29.32L125.347 49H120.403L123.523 29.32C123.651 28.584 123.587 28.024 123.331 27.64C123.075 27.224 122.643 27.016 122.035 27.016C121.427 27.016 120.931 27.224 120.547 27.64C120.163 28.024 119.907 28.584 119.779 29.32L116.659 49H110.466ZM140.592 49L141.648 42.472H150.768L152.88 29.08H144.96L145.968 22.6H160.608L157.488 42.472H165.168L164.112 49H140.592ZM157.44 18.424C156.128 18.424 155.136 18.088 154.464 17.416C153.792 16.744 153.536 15.832 153.696 14.68C153.888 13.528 154.432 12.616 155.328 11.944C156.224 11.272 157.328 10.936 158.64 10.936C159.952 10.936 160.944 11.272 161.616 11.944C162.288 12.616 162.528 13.528 162.336 14.68C162.176 15.832 161.648 16.744 160.752 17.416C159.856 18.088 158.752 18.424 157.44 18.424ZM169.181 49L173.357 22.6H180.317L179.501 27.64H181.613L179.261 29.32C179.613 27.08 180.525 25.32 181.997 24.04C183.501 22.76 185.341 22.12 187.517 22.12C190.077 22.12 191.981 23.016 193.229 24.808C194.509 26.6 194.909 28.984 194.429 31.96L191.741 49H184.541L187.133 32.68C187.357 31.304 187.165 30.248 186.557 29.512C185.949 28.744 184.989 28.36 183.677 28.36C182.397 28.36 181.341 28.744 180.509 29.512C179.709 30.248 179.197 31.304 178.973 32.68L176.381 49H169.181ZM209.098 49.48C205.418 49.48 202.618 48.568 200.698 46.744C198.778 44.92 198.074 42.472 198.586 39.4H205.786C205.594 40.584 205.898 41.528 206.698 42.232C207.498 42.904 208.682 43.24 210.25 43.24C211.754 43.24 212.986 42.904 213.946 42.232C214.906 41.56 215.482 40.632 215.674 39.448C215.834 38.36 215.658 37.432 215.146 36.664C214.666 35.896 213.882 35.384 212.794 35.128L209.386 34.312C206.506 33.608 204.378 32.312 203.002 30.424C201.626 28.536 201.146 26.264 201.562 23.608C201.882 21.56 202.634 19.784 203.818 18.28C205.002 16.744 206.522 15.56 208.378 14.728C210.234 13.896 212.346 13.48 214.714 13.48C218.298 13.48 221.002 14.376 222.826 16.168C224.65 17.928 225.322 20.312 224.842 23.32H217.642C217.802 22.2 217.546 21.32 216.874 20.68C216.202 20.04 215.13 19.72 213.658 19.72C212.282 19.72 211.162 20.04 210.298 20.68C209.466 21.288 208.97 22.168 208.81 23.32C208.618 24.408 208.746 25.336 209.194 26.104C209.642 26.84 210.378 27.336 211.402 27.592L215.002 28.456C217.946 29.16 220.106 30.44 221.482 32.296C222.858 34.12 223.338 36.392 222.922 39.112C222.57 41.224 221.77 43.064 220.522 44.632C219.274 46.168 217.674 47.368 215.722 48.232C213.802 49.064 211.594 49.48 209.098 49.48ZM228.904 57.64L229.816 51.88H237.256C238.6 51.88 239.688 51.544 240.52 50.872C241.384 50.2 241.896 49.272 242.056 48.088L242.2 47.08L243.112 41.56H241L243.352 39.88C243 42.12 242.072 43.88 240.568 45.16C239.095 46.44 237.272 47.08 235.096 47.08C232.536 47.08 230.616 46.184 229.336 44.392C228.088 42.6 227.704 40.216 228.184 37.24L230.488 22.6H237.688L235.48 36.52C235.256 37.896 235.448 38.968 236.056 39.736C236.696 40.472 237.656 40.84 238.936 40.84C240.216 40.84 241.256 40.472 242.056 39.736C242.888 38.968 243.416 37.896 243.64 36.52L245.848 22.6H253.048L249.064 48.328C248.616 51.208 247.272 53.48 245.032 55.144C242.792 56.808 239.976 57.64 236.584 57.64H228.904ZM255.525 49L259.701 22.6H266.661L265.845 27.64H267.957L265.605 29.32C265.957 27.08 266.869 25.32 268.341 24.04C269.845 22.76 271.685 22.12 273.861 22.12C276.421 22.12 278.325 23.016 279.573 24.808C280.853 26.6 281.253 28.984 280.773 31.96L278.085 49H270.885L273.477 32.68C273.701 31.304 273.509 30.248 272.901 29.512C272.293 28.744 271.333 28.36 270.021 28.36C268.741 28.36 267.685 28.744 266.853 29.512C266.053 30.248 265.541 31.304 265.317 32.68L262.725 49H255.525ZM295.586 49.48C293.25 49.48 291.266 49.048 289.634 48.184C288.034 47.288 286.882 46.056 286.178 44.488C285.474 42.888 285.282 41.032 285.602 38.92L286.61 32.68C286.962 30.536 287.746 28.68 288.962 27.112C290.178 25.544 291.73 24.328 293.618 23.464C295.506 22.568 297.618 22.12 299.954 22.12C303.442 22.12 306.082 23 307.874 24.76C309.666 26.52 310.386 28.92 310.034 31.96H302.834C302.93 30.84 302.626 29.96 301.922 29.32C301.25 28.68 300.258 28.36 298.946 28.36C297.506 28.36 296.338 28.728 295.442 29.464C294.578 30.2 294.034 31.272 293.81 32.68L292.802 38.92C292.578 40.296 292.786 41.368 293.426 42.136C294.098 42.872 295.154 43.24 296.594 43.24C297.906 43.24 298.994 42.936 299.858 42.328C300.754 41.688 301.346 40.792 301.634 39.64H308.834C308.226 42.68 306.738 45.08 304.37 46.84C302.002 48.6 299.074 49.48 295.586 49.48Z"/><defs><linearGradient id="paint0_linear_1_32" x1="39.433" x2="17.672" y1="20.35" y2="43.382" gradientUnits="userSpaceOnUse"><stop stop-color="#F58033"/><stop offset="1" stop-color="#A53826"/></linearGradient><linearGradient id="paint1_linear_1_32" x1="21.83" x2="21.83" y1="9.542" y2="49.474" gradientUnits="userSpaceOnUse"><stop stop-color="#FCC400"/><stop offset="1" stop-color="#F80300"/></linearGradient><linearGradient id="paint2_linear_1_32" x1="8.75" x2="8.75" y1="6.917" y2="49.983" gradientUnits="userSpaceOnUse"><stop stop-color="#FCFC53"/><stop offset="1" stop-color="#F8A700"/></linearGradient><linearGradient id="paint3_linear_1_32" x1="183" x2="183" y1="0" y2="63" gradientUnits="userSpaceOnUse"><stop stop-color="#FB8301" stop-opacity=".8"/><stop offset="1" stop-color="#FAD028"/></linearGradient></defs></svg>