<svg xmlns="http://www.w3.org/2000/svg" width="64" height="64" viewBox="0 0 128 128"><path d="M 98 1 C 96.3 1 95 2.3 95 4 L 95 4.4003906 C 90.3 5.7003906 86.900391 9.9996094 86.900391 15.099609 C 86.900391 18.699609 88.599609 21.999609 91.599609 24.099609 L 100.90039 30.599609 C 102.30039 31.599609 103.09961 33.100781 103.09961 34.800781 C 103.09961 37.600781 100.8 39.900391 98 39.900391 C 96 39.900391 94.100781 38.700781 93.300781 36.800781 C 92.600781 35.300781 90.900391 34.599219 89.400391 35.199219 C 87.900391 35.899219 87.200781 37.599609 87.800781 39.099609 C 89.200781 42.199609 91.8 44.500391 95 45.400391 L 95 46 C 95 47.7 96.3 49 98 49 C 99.7 49 101 47.7 101 46 L 101 45.599609 C 105.7 44.299609 109.09961 40.000391 109.09961 34.900391 C 109.09961 31.200391 107.30078 27.799219 104.30078 25.699219 L 95 19.300781 C 93.7 18.300781 92.900391 16.799609 92.900391 15.099609 C 92.900391 12.299609 95.2 10 98 10 C 100.1 10 101.89922 11.199609 102.69922 13.099609 C 103.29922 14.599609 105.09961 15.299219 106.59961 14.699219 C 108.09961 14.099219 108.79922 12.300781 108.19922 10.800781 C 106.89922 7.6007812 104.2 5.3003906 101 4.4003906 L 101 4 C 101 2.3 99.7 1 98 1 z M 73.800781 1.0585938 C 72.624219 1.1429688 71.574219 1.875 71.199219 3 C 59.199219 37.1 34.899219 64.900781 2.6992188 81.300781 C 1.1992188 82.100781 0.60039063 83.900781 1.4003906 85.300781 C 1.9003906 86.400781 2.9 87 4 87 C 4.5 87 4.9003906 86.899219 5.4003906 86.699219 C 38.900391 69.599219 64.300781 40.5 76.800781 5 C 77.300781 3.4 76.5 1.6992187 75 1.1992188 C 74.6 1.0742188 74.192969 1.0304688 73.800781 1.0585938 z M 88 53 C 86.3 53 85 54.3 85 56 L 85 112 C 85 113.7 86.3 115 88 115 L 108 115 C 109.7 115 111 113.7 111 112 L 111 56 C 111 54.3 109.7 53 108 53 L 88 53 z M 91 59 L 105 59 L 105 109 L 91 109 L 91 59 z M 54 71 C 52.3 71 51 72.3 51 74 L 51 112 C 51 113.7 52.3 115 54 115 L 74 115 C 75.7 115 77 113.7 77 112 L 77 74 C 77 72.3 75.7 71 74 71 L 54 71 z M 57 77 L 71 77 L 71 109 L 57 109 L 57 77 z M 20 91 C 18.3 91 17 92.3 17 94 L 17 112 C 17 113.7 18.3 115 20 115 L 40 115 C 41.7 115 43 113.7 43 112 L 43 94 C 43 92.3 41.7 91 40 91 L 20 91 z M 23 97 L 37 97 L 37 109 L 23 109 L 23 97 z M 4 121 C 2.3 121 1 122.3 1 124 C 1 125.7 2.3 127 4 127 L 124 127 C 125.7 127 127 125.7 127 124 C 127 122.3 125.7 121 124 121 L 4 121 z"/></svg>