<svg xmlns="http://www.w3.org/2000/svg" width="64" height="64" viewBox="0 0 128 128"><path d="M113 114v-10c0-1.7-1.3-3-3-3s-3 1.3-3 3v10c0 1.7 1.3 3 3 3S113 115.7 113 114zM112.1 1.9c-1.2-1.2-3.1-1.2-4.2 0l-15 15c-1.2 1.2-1.2 3.1 0 4.2 1.2 1.2 3.1 1.2 4.2 0l9.9-9.9V84c0 1.7 1.3 3 3 3s3-1.3 3-3V11.2l9.9 9.9c.6.6 1.4.9 2.1.9s1.5-.3 2.1-.9c1.2-1.2 1.2-3.1 0-4.2L112.1 1.9zM5 117c1.7 0 3-1.3 3-3V84c0-1.7-1.3-3-3-3s-3 1.3-3 3v30C2 115.7 3.3 117 5 117zM35 70c1.9.7 4-.8 4-2.8l0-5.7c0-1.3-.9-2.5-2.2-2.9-1.3-.4-2.5-.8-3.6-1.3-2.5-1-2.5-4.5 0-5.5C38.7 49.5 47.3 48 57 48c9.7 0 18.3 1.5 23.8 3.7 2.5 1 2.5 4.5 0 5.6C75.3 59.5 66.7 61 57 61c-1.6 0-3.3 0-4.8-.1-1.7-.1-3.2 1.3-3.2 3v6c0 1.6 1.2 2.9 2.8 3C53.5 73 55.2 73 57 73c16.6 0 30-4.3 30-9.5v-12c0-5.2-13.4-9.5-30-9.5s-30 4.3-30 9.5v12C27 66 30 68.3 35 70zM87 77.1c0-2.2-2.4-3.7-4.3-2.7C77.4 77.2 67.9 79 57 79c-1.6 0-3.3 0-4.8-.1-1.7-.1-3.2 1.3-3.2 3v6c0 1.6 1.2 2.9 2.8 3C53.5 91 55.2 91 57 91c16.6 0 30-4.3 30-9.5V77.1zM35 88c1.9.7 4-.8 4-2.8v-5.7c0-1.3-.9-2.5-2.2-2.9-2.1-.6-3.9-1.3-5.4-2.1-2-1-4.4.4-4.4 2.7v4.4C27 84 30 86.3 35 88zM87 95.1c0-2.2-2.4-3.7-4.3-2.7C77.4 95.2 67.9 97 57 97c-1.6 0-3.3 0-4.8-.1-1.7-.1-3.2 1.3-3.2 3v6c0 1.6 1.2 2.9 2.8 3 1.7.1 3.4.1 5.2.1 16.6 0 30-4.3 30-9.5V95.1zM35 106c1.9.7 4-.8 4-2.8v-5.7c0-1.3-.9-2.5-2.2-2.9-2.1-.6-3.9-1.3-5.4-2.1-2-1-4.4.4-4.4 2.7v4.4C27 102 30 104.3 35 106zM82.7 110.4c-5.3 2.7-14.8 4.6-25.7 4.6-1.6 0-3.3 0-4.8-.1-1.7-.1-3.2 1.3-3.2 3v6c0 1.6 1.2 2.9 2.8 3 1.7.1 3.4.1 5.2.1 16.6 0 30-4.3 30-9.5v-4.4C87 110.9 84.6 109.4 82.7 110.4zM35 124c1.9.7 4-.8 4-2.8v-5.7c0-1.3-.9-2.5-2.2-2.9-2.1-.6-3.9-1.3-5.4-2.1-2-1-4.4.4-4.4 2.7v4.4C27 120 30 122.3 35 124z"/></svg>